REM DIRINDEX 1\2\4,1\2\5,1\2\6,1\3\7,1\3\8,1\3\9,1\3\10
REM DIRNAME folder01,folder02,folder03,folder04,folder05,folder06,folder07,folder08,folder09,folder10
TITLE ""
FILE "a_37.mp3" MP3
  TRACK 01 AUDIO
    TITLE "0:"
    INDEX 01 00:00:00
  TRACK 02 AUDIO
    TITLE "6:cjc058_0701"
    INDEX 01 00:00:13
  TRACK 03 AUDIO
    TITLE "0:"
    INDEX 01 00:03:23
  TRACK 04 AUDIO
    TITLE "4:cjc058_0702"
    INDEX 01 00:03:66
  TRACK 05 AUDIO
    TITLE "0:"
    INDEX 01 00:05:42
  TRACK 06 AUDIO
    TITLE "5:cjc058_0703"
    INDEX 01 00:05:71
  TRACK 07 AUDIO
    TITLE "0:"
    INDEX 01 00:07:72
  TRACK 08 AUDIO
    TITLE "4:cjc058_0704"
    INDEX 01 00:09:02
  TRACK 09 AUDIO
    TITLE "0:"
    INDEX 01 00:10:51
  TRACK 10 AUDIO
    TITLE "5:cjc058_0705"
    INDEX 01 00:11:05
  TRACK 11 AUDIO
    TITLE "0:"
    INDEX 01 00:12:48
  TRACK 12 AUDIO
    TITLE "4:cjc058_0706"
    INDEX 01 00:13:55
  TRACK 13 AUDIO
    TITLE "0:"
    INDEX 01 00:15:27
  TRACK 14 AUDIO
    TITLE "5:cjc058_0707"
    INDEX 01 00:15:56
  TRACK 15 AUDIO
    TITLE "0:"
    INDEX 01 00:17:18
  TRACK 16 AUDIO
    TITLE "4:cjc058_0708"
    INDEX 01 00:18:23
  TRACK 17 AUDIO
    TITLE "0:"
    INDEX 01 00:19:67
  TRACK 18 AUDIO
    TITLE "5:cjc058_0709"
    INDEX 01 00:20:22
  TRACK 19 AUDIO
    TITLE "0:"
    INDEX 01 00:22:40
  TRACK 20 AUDIO
    TITLE "4:cjc058_0710"
    INDEX 01 00:23:46
  TRACK 21 AUDIO
    TITLE "0:"
    INDEX 01 00:25:29
  TRACK 22 AUDIO
    TITLE "5:cjc058_0711"
    INDEX 01 00:25:58
  TRACK 23 AUDIO
    TITLE "0:"
    INDEX 01 00:27:36
  TRACK 24 AUDIO
    TITLE "4:cjc058_0712"
    INDEX 01 00:28:37
  TRACK 25 AUDIO
    TITLE "0:"
    INDEX 01 00:29:50
  TRACK 26 AUDIO
    TITLE "5:cjc058_0713"
    INDEX 01 00:30:03
  TRACK 27 AUDIO
    TITLE "0:"
    INDEX 01 00:31:53
  TRACK 28 AUDIO
    TITLE "4:cjc058_0714"
    INDEX 01 00:32:58
  TRACK 29 AUDIO
    TITLE "0:"
    INDEX 01 00:34:08
  TRACK 30 AUDIO
    TITLE "5:cjc058_0715"
    INDEX 01 00:34:38
  TRACK 31 AUDIO
    TITLE "0:"
    INDEX 01 00:36:42
  TRACK 32 AUDIO
    TITLE "4:cjc058_0716"
    INDEX 01 00:37:44
  TRACK 33 AUDIO
    TITLE "0:"
    INDEX 01 00:38:69
  TRACK 34 AUDIO
    TITLE "5:cjc058_0717"
    INDEX 01 00:39:25
  TRACK 35 AUDIO
    TITLE "0:"
    INDEX 01 00:41:38
  TRACK 36 AUDIO
    TITLE "4:cjc058_0718"
    INDEX 01 00:42:43
  TRACK 37 AUDIO
    TITLE "0:"
    INDEX 01 00:43:68
  TRACK 38 AUDIO
    TITLE "5:cjc058_0719"
    INDEX 01 00:44:24
  TRACK 39 AUDIO
    TITLE "0:"
    INDEX 01 00:45:57
  TRACK 40 AUDIO
    TITLE "4:cjc058_0720"
    INDEX 01 00:46:62
  TRACK 41 AUDIO
    TITLE "0:"
    INDEX 01 00:48:24
  TRACK 42 AUDIO
    TITLE "5:cjc058_0721"
    INDEX 01 00:48:53
  TRACK 43 AUDIO
    TITLE "0:"
    INDEX 01 00:50:72
  TRACK 44 AUDIO
    TITLE "4:cjc058_0722"
    INDEX 01 00:51:71
  TRACK 45 AUDIO
    TITLE "0:"
    INDEX 01 00:53:51
  TRACK 46 AUDIO
    TITLE "5:cjc058_0723"
    INDEX 01 00:54:01
  TRACK 47 AUDIO
    TITLE "0:"
    INDEX 01 00:56:29
  TRACK 48 AUDIO
    TITLE "4:cjc058_0724"
    INDEX 01 00:57:35
  TRACK 49 AUDIO
    TITLE "0:"
    INDEX 01 00:58:73
  TRACK 50 AUDIO
    TITLE "5:cjc058_0725"
    INDEX 01 00:59:28
  TRACK 51 AUDIO
    TITLE "0:"
    INDEX 01 01:00:51
  TRACK 52 AUDIO
    TITLE "4:cjc058_0726"
    INDEX 01 01:01:56
  TRACK 53 AUDIO
    TITLE "0:"
    INDEX 01 01:03:24
  TRACK 54 AUDIO
    TITLE "5:cjc058_0727"
    INDEX 01 01:03:49
  TRACK 55 AUDIO
    TITLE "0:"
    INDEX 01 01:06:24
  TRACK 56 AUDIO
    TITLE "4:cjc058_0728"
    INDEX 01 01:07:25
  TRACK 57 AUDIO
    TITLE "0:"
    INDEX 01 01:08:68
  TRACK 58 AUDIO
    TITLE "5:cjc058_0729"
    INDEX 01 01:09:24
  TRACK 59 AUDIO
    TITLE "0:"
    INDEX 01 01:11:62
  TRACK 60 AUDIO
    TITLE "4:cjc058_0730"
    INDEX 01 01:12:66
  TRACK 61 AUDIO
    TITLE "0:"
    INDEX 01 01:14:19
  TRACK 62 AUDIO
    TITLE "5:cjc058_0731"
    INDEX 01 01:14:49
  TRACK 63 AUDIO
    TITLE "0:"
    INDEX 01 01:17:08
  TRACK 64 AUDIO
    TITLE "4:cjc058_0732"
    INDEX 01 01:18:13
  TRACK 65 AUDIO
    TITLE "0:"
    INDEX 01 01:19:66
  TRACK 66 AUDIO
    TITLE "5:cjc058_0733"
    INDEX 01 01:20:22
  TRACK 67 AUDIO
    TITLE "0:"
    INDEX 01 01:22:46
  TRACK 68 AUDIO
    TITLE "4:cjc058_0734"
    INDEX 01 01:23:52
  TRACK 69 AUDIO
    TITLE "0:"
    INDEX 01 01:24:65
  TRACK 70 AUDIO
    TITLE "5:cjc058_0735"
    INDEX 01 01:25:21
  TRACK 71 AUDIO
    TITLE "0:"
    INDEX 01 01:26:72
  TRACK 72 AUDIO
    TITLE "4:cjc058_0736"
    INDEX 01 01:28:02
  TRACK 73 AUDIO
    TITLE "0:"
    INDEX 01 01:30:38
  TRACK 74 AUDIO
    TITLE "5:cjc058_0737"
    INDEX 01 01:30:71
  TRACK 75 AUDIO
    TITLE "0:"
    INDEX 01 01:33:23
  TRACK 76 AUDIO
    TITLE "4:cjc058_0738"
    INDEX 01 01:34:30
  TRACK 77 AUDIO
    TITLE "0:"
    INDEX 01 01:35:65
  TRACK 78 AUDIO
    TITLE "5:cjc058_0739"
    INDEX 01 01:36:21
  TRACK 79 AUDIO
    TITLE "0:"
    INDEX 01 01:38:18
  TRACK 80 AUDIO
    TITLE "4:cjc058_0740"
    INDEX 01 01:39:21
  TRACK 81 AUDIO
    TITLE "0:"
    INDEX 01 01:41:03
  TRACK 82 AUDIO
    TITLE "5:cjc058_0741"
    INDEX 01 01:41:32
  TRACK 83 AUDIO
    TITLE "0:"
    INDEX 01 01:42:71
  TRACK 84 AUDIO
    TITLE "4:cjc058_0742"
    INDEX 01 01:44:01
  TRACK 85 AUDIO
    TITLE "0:"
    INDEX 01 01:45:65
  TRACK 86 AUDIO
    TITLE "5:cjc058_0743"
    INDEX 01 01:46:21
  TRACK 87 AUDIO
    TITLE "0:"
    INDEX 01 01:48:58
  TRACK 88 AUDIO
    TITLE "4:cjc058_0744"
    INDEX 01 01:49:61
  TRACK 89 AUDIO
    TITLE "0:"
    INDEX 01 01:51:21
  TRACK 90 AUDIO
    TITLE "5:cjc058_0745"
    INDEX 01 01:51:50
  TRACK 91 AUDIO
    TITLE "0:"
    INDEX 01 01:54:17
  TRACK 92 AUDIO
    TITLE "4:cjc058_0746"
    INDEX 01 01:55:24
  TRACK 93 AUDIO
    TITLE "0:"
    INDEX 01 01:56:41
  TRACK 94 AUDIO
    TITLE "5:cjc058_0747"
    INDEX 01 01:56:71
  TRACK 95 AUDIO
    TITLE "0:"
    INDEX 01 01:59:30
  TRACK 96 AUDIO
    TITLE "4:cjc058_0748"
    INDEX 01 02:00:35
  TRACK 97 AUDIO
    TITLE "0:"
    INDEX 01 02:01:58
  TRACK 98 AUDIO
    TITLE "5:cjc058_0749"
    INDEX 01 02:02:13
  TRACK 99 AUDIO
    TITLE "0:"
    INDEX 01 02:03:47
  TRACK 100 AUDIO
    TITLE "4:cjc058_0750"
    INDEX 01 02:04:51
  TRACK 101 AUDIO
    TITLE "0:"
    INDEX 01 02:06:22
  TRACK 102 AUDIO
    TITLE "5:cjc058_0751"
    INDEX 01 02:06:50
  TRACK 103 AUDIO
    TITLE "0:"
    INDEX 01 02:08:33
  TRACK 104 AUDIO
    TITLE "4:cjc058_0752"
    INDEX 01 02:09:34
  TRACK 105 AUDIO
    TITLE "0:"
    INDEX 01 02:10:71
  TRACK 106 AUDIO
    TITLE "5:cjc058_0753"
    INDEX 01 02:11:27
  TRACK 107 AUDIO
    TITLE "0:"
    INDEX 01 02:12:56
  TRACK 108 AUDIO
    TITLE "4:cjc058_0754"
    INDEX 01 02:13:59
  TRACK 109 AUDIO
    TITLE "0:"
    INDEX 01 02:15:33
  TRACK 110 AUDIO
    TITLE "5:cjc058_0755"
    INDEX 01 02:15:62
  TRACK 111 AUDIO
    TITLE "0:"
    INDEX 01 02:17:12
  TRACK 112 AUDIO
    TITLE "4:cjc058_0756"
    INDEX 01 02:18:19
  TRACK 113 AUDIO
    TITLE "0:"
    INDEX 01 02:19:54
  TRACK 114 AUDIO
    TITLE "5:cjc058_0757"
    INDEX 01 02:20:11
  TRACK 115 AUDIO
    TITLE "0:"
    INDEX 01 02:21:24
  TRACK 116 AUDIO
    TITLE "4:cjc058_0758"
    INDEX 01 02:22:27
  TRACK 117 AUDIO
    TITLE "0:"
    INDEX 01 02:24:04
  TRACK 118 AUDIO
    TITLE "5:cjc058_0759"
    INDEX 01 02:24:34
  TRACK 119 AUDIO
    TITLE "0:"
    INDEX 01 02:25:68
  TRACK 120 AUDIO
    TITLE "4:cjc058_0760"
    INDEX 01 02:26:72
  TRACK 121 AUDIO
    TITLE "0:"
    INDEX 01 02:28:34
  TRACK 122 AUDIO
    TITLE "5:cjc058_0761"
    INDEX 01 02:28:61
  TRACK 123 AUDIO
    TITLE "0:"
    INDEX 01 02:30:15
  TRACK 124 AUDIO
    TITLE "4:cjc058_0762"
    INDEX 01 02:31:20
  TRACK 125 AUDIO
    TITLE "0:"
    INDEX 01 02:33:07
  TRACK 126 AUDIO
    TITLE "5:cjc058_0763"
    INDEX 01 02:33:37
  TRACK 127 AUDIO
    TITLE "0:"
    INDEX 01 02:34:60
  TRACK 128 AUDIO
    TITLE "4:cjc058_0764"
    INDEX 01 02:35:63
  TRACK 129 AUDIO
    TITLE "0:"
    INDEX 01 02:37:33
  TRACK 130 AUDIO
    TITLE "5:cjc058_0765"
    INDEX 01 02:37:58
  TRACK 131 AUDIO
    TITLE "0:"
    INDEX 01 02:39:39
  TRACK 132 AUDIO
    TITLE "4:cjc058_0766"
    INDEX 01 02:40:43
  TRACK 133 AUDIO
    TITLE "0:"
    INDEX 01 02:42:12
  TRACK 134 AUDIO
    TITLE "5:cjc058_0767"
    INDEX 01 02:42:40
  TRACK 135 AUDIO
    TITLE "0:"
    INDEX 01 02:44:05
  TRACK 136 AUDIO
    TITLE "4:cjc058_0768"
    INDEX 01 02:45:10
  TRACK 137 AUDIO
    TITLE "0:"
    INDEX 01 02:46:57
  TRACK 138 AUDIO
    TITLE "5:cjc058_0769"
    INDEX 01 02:47:11
  TRACK 139 AUDIO
    TITLE "0:"
    INDEX 01 02:48:54
  TRACK 140 AUDIO
    TITLE "4:cjc058_0770"
    INDEX 01 02:49:57
  TRACK 141 AUDIO
    TITLE "0:"
    INDEX 01 02:51:29
  TRACK 142 AUDIO
    TITLE "5:cjc058_0771"
    INDEX 01 02:51:60
  TRACK 143 AUDIO
    TITLE "0:"
    INDEX 01 02:53:69
  TRACK 144 AUDIO
    TITLE "4:cjc058_0772"
    INDEX 01 02:54:68
  TRACK 145 AUDIO
    TITLE "0:"
    INDEX 01 02:56:14
  TRACK 146 AUDIO
    TITLE "5:cjc058_0773"
    INDEX 01 02:56:46
  TRACK 147 AUDIO
    TITLE "0:"
    INDEX 01 02:59:42
  TRACK 148 AUDIO
    TITLE "4:cjc058_0774"
    INDEX 01 03:00:47
  TRACK 149 AUDIO
    TITLE "0:"
    INDEX 01 03:02:09
  TRACK 150 AUDIO
    TITLE "5:cjc058_0775"
    INDEX 01 03:02:40
  TRACK 151 AUDIO
    TITLE "0:"
    INDEX 01 03:04:72
  TRACK 152 AUDIO
    TITLE "4:cjc058_0776"
    INDEX 01 03:05:72
  TRACK 153 AUDIO
    TITLE "0:"
    INDEX 01 03:07:45
  TRACK 154 AUDIO
    TITLE "5:cjc058_0777"
    INDEX 01 03:07:73
  TRACK 155 AUDIO
    TITLE "0:"
    INDEX 01 03:10:24
  TRACK 156 AUDIO
    TITLE "4:cjc058_0778"
    INDEX 01 03:11:29
  TRACK 157 AUDIO
    TITLE "0:"
    INDEX 01 03:12:58
  TRACK 158 AUDIO
    TITLE "5:cjc058_0779"
    INDEX 01 03:13:11
  TRACK 159 AUDIO
    TITLE "0:"
    INDEX 01 03:14:57
  TRACK 160 AUDIO
    TITLE "4:cjc058_0780"
    INDEX 01 03:15:63
  TRACK 161 AUDIO
    TITLE "0:"
    INDEX 01 03:17:18
  TRACK 162 AUDIO
    TITLE "5:cjc058_0781"
    INDEX 01 03:17:48
  TRACK 163 AUDIO
    TITLE "0:"
    INDEX 01 03:18:65
  TRACK 164 AUDIO
    TITLE "4:cjc058_0782"
    INDEX 01 03:19:70
  TRACK 165 AUDIO
    TITLE "0:"
    INDEX 01 03:21:18
  TRACK 166 AUDIO
    TITLE "5:cjc058_0783"
    INDEX 01 03:21:49
  TRACK 167 AUDIO
    TITLE "0:"
    INDEX 01 03:22:66
  TRACK 168 AUDIO
    TITLE "4:cjc058_0784"
    INDEX 01 03:23:70
  TRACK 169 AUDIO
    TITLE "0:"
    INDEX 01 03:25:33
  TRACK 170 AUDIO
    TITLE "5:cjc058_0785"
    INDEX 01 03:25:63
  TRACK 171 AUDIO
    TITLE "0:"
    INDEX 01 03:28:61
  TRACK 172 AUDIO
    TITLE "4:cjc058_0786"
    INDEX 01 03:29:63
  TRACK 173 AUDIO
    TITLE "0:"
    INDEX 01 03:31:36
  TRACK 174 AUDIO
    TITLE "5:cjc058_0787"
    INDEX 01 03:31:65
  TRACK 175 AUDIO
    TITLE "0:"
    INDEX 01 03:34:72
  TRACK 176 AUDIO
    TITLE "4:cjc058_0788"
    INDEX 01 03:36:00
  TRACK 177 AUDIO
    TITLE "0:"
    INDEX 01 03:37:21
  TRACK 178 AUDIO
    TITLE "5:cjc058_0789"
    INDEX 01 03:37:52
  TRACK 179 AUDIO
    TITLE "0:"
    INDEX 01 03:40:17
  TRACK 180 AUDIO
    TITLE "4:cjc058_0790"
    INDEX 01 03:41:21
  TRACK 181 AUDIO
    TITLE "0:"
    INDEX 01 03:42:61
  TRACK 182 AUDIO
    TITLE "5:cjc058_0791"
    INDEX 01 03:43:16
  TRACK 183 AUDIO
    TITLE "0:"
    INDEX 01 03:45:36
  TRACK 184 AUDIO
    TITLE "4:cjc058_0792"
    INDEX 01 03:46:36
  TRACK 185 AUDIO
    TITLE "0:"
    INDEX 01 03:49:05
  TRACK 186 AUDIO
    TITLE "5:cjc058_0793"
    INDEX 01 03:49:30
  TRACK 187 AUDIO
    TITLE "0:"
    INDEX 01 03:51:21
  TRACK 188 AUDIO
    TITLE "4:cjc058_0794"
    INDEX 01 03:52:26
  TRACK 189 AUDIO
    TITLE "0:"
    INDEX 01 03:53:69
  TRACK 190 AUDIO
    TITLE "5:cjc058_0795"
    INDEX 01 03:54:23
  TRACK 191 AUDIO
    TITLE "0:"
    INDEX 01 03:55:44
  TRACK 192 AUDIO
    TITLE "4:cjc058_0796"
    INDEX 01 03:56:48
  TRACK 193 AUDIO
    TITLE "0:"
    INDEX 01 03:58:06
  TRACK 194 AUDIO
    TITLE "5:cjc058_0797"
    INDEX 01 03:58:35
  TRACK 195 AUDIO
    TITLE "0:"
    INDEX 01 03:59:54
  TRACK 196 AUDIO
    TITLE "4:cjc058_0798"
    INDEX 01 04:00:57
  TRACK 197 AUDIO
    TITLE "0:"
    INDEX 01 04:02:17
  TRACK 198 AUDIO
    TITLE "5:cjc058_0799"
    INDEX 01 04:02:42
  TRACK 199 AUDIO
    TITLE "0:"
    INDEX 01 04:04:43
  TRACK 200 AUDIO
    TITLE "4:cjc058_0800"
    INDEX 01 04:05:47
  TRACK 201 AUDIO
    TITLE "0:"
    INDEX 01 04:07:26
  TRACK 202 AUDIO
    TITLE "5:cjc058_0801"
    INDEX 01 04:07:57
  TRACK 203 AUDIO
    TITLE "0:"
    INDEX 01 04:09:23
  TRACK 204 AUDIO
    TITLE "4:cjc058_0802"
    INDEX 01 04:10:28
  TRACK 205 AUDIO
    TITLE "0:"
    INDEX 01 04:11:65
  TRACK 206 AUDIO
    TITLE "5:cjc058_0803"
    INDEX 01 04:12:17
  TRACK 207 AUDIO
    TITLE "0:"
    INDEX 01 04:14:36
  TRACK 208 AUDIO
    TITLE "4:cjc058_0804"
    INDEX 01 04:15:39
  TRACK 209 AUDIO
    TITLE "0:"
    INDEX 01 04:17:19
  TRACK 210 AUDIO
    TITLE "5:cjc058_0805"
    INDEX 01 04:17:46
  TRACK 211 AUDIO
    TITLE "0:"
    INDEX 01 04:19:39
  TRACK 212 AUDIO
    TITLE "4:cjc058_0806"
    INDEX 01 04:20:40
  TRACK 213 AUDIO
    TITLE "0:"
    INDEX 01 04:21:65
  TRACK 214 AUDIO
    TITLE "5:cjc058_0807"
    INDEX 01 04:22:20
  TRACK 215 AUDIO
    TITLE "0:"
    INDEX 01 04:24:09
  TRACK 216 AUDIO
    TITLE "4:cjc058_0808"
    INDEX 01 04:25:14
  TRACK 217 AUDIO
    TITLE "0:"
    INDEX 01 04:26:29
  TRACK 218 AUDIO
    TITLE "5:cjc058_0809"
    INDEX 01 04:26:61
  TRACK 219 AUDIO
    TITLE "0:"
    INDEX 01 04:27:68
  TRACK 220 AUDIO
    TITLE "4:cjc058_0810"
    INDEX 01 04:28:71
  TRACK 221 AUDIO
    TITLE "0:"
    INDEX 01 04:30:21
  TRACK 222 AUDIO
    TITLE "5:cjc058_0811"
    INDEX 01 04:30:53
  TRACK 223 AUDIO
    TITLE "0:"
    INDEX 01 04:32:10
  TRACK 224 AUDIO
    TITLE "4:cjc058_0812"
    INDEX 01 04:33:12
  TRACK 225 AUDIO
    TITLE "0:"
    INDEX 01 04:35:03
  TRACK 226 AUDIO
    TITLE "5:cjc058_0813"
    INDEX 01 04:35:32
  TRACK 227 AUDIO
    TITLE "0:"
    INDEX 01 04:37:06
  TRACK 228 AUDIO
    TITLE "4:cjc058_0814"
    INDEX 01 04:38:11
  TRACK 229 AUDIO
    TITLE "0:"
    INDEX 01 04:39:30
  TRACK 230 AUDIO
    TITLE "5:cjc058_0815"
    INDEX 01 04:39:59
  TRACK 231 AUDIO
    TITLE "0:"
    INDEX 01 04:41:60
  TRACK 232 AUDIO
    TITLE "4:cjc058_0816"
    INDEX 01 04:42:64
  TRACK 233 AUDIO
    TITLE "0:"
    INDEX 01 04:44:15
  TRACK 234 AUDIO
    TITLE "5:cjc058_0817"
    INDEX 01 04:44:45
  TRACK 235 AUDIO
    TITLE "0:"
    INDEX 01 04:46:06
  TRACK 236 AUDIO
    TITLE "4:cjc058_0818"
    INDEX 01 04:47:12
  TRACK 237 AUDIO
    TITLE "0:"
    INDEX 01 04:48:56
  TRACK 238 AUDIO
    TITLE "5:cjc058_0819"
    INDEX 01 04:49:11
  TRACK 239 AUDIO
    TITLE "0:"
    INDEX 01 04:50:49
  TRACK 240 AUDIO
    TITLE "4:cjc058_0820"
    INDEX 01 04:51:55
  TRACK 241 AUDIO
    TITLE "0:"
    INDEX 01 04:53:36
  TRACK 242 AUDIO
    TITLE "5:cjc058_0821"
    INDEX 01 04:53:65
  TRACK 243 AUDIO
    TITLE "0:"
    INDEX 01 04:55:47
  TRACK 244 AUDIO
    TITLE "4:cjc058_0822"
    INDEX 01 04:56:46
  TRACK 245 AUDIO
    TITLE "0:"
    INDEX 01 04:57:69
  TRACK 246 AUDIO
    TITLE "5:cjc058_0823"
    INDEX 01 04:58:25
  TRACK 247 AUDIO
    TITLE "0:"
    INDEX 01 05:00:71
  TRACK 248 AUDIO
    TITLE "4:cjc058_0824"
    INDEX 01 05:02:02
  TRACK 249 AUDIO
    TITLE "0:"
    INDEX 01 05:03:54
  TRACK 250 AUDIO
    TITLE "5:cjc058_0825"
    INDEX 01 05:04:06
  TRACK 251 AUDIO
    TITLE "0:"
    INDEX 01 05:06:33
  TRACK 252 AUDIO
    TITLE "4:cjc058_0826"
    INDEX 01 05:07:32
  TRACK 253 AUDIO
    TITLE "0:"
    INDEX 01 05:08:65
  TRACK 254 AUDIO
    TITLE "5:cjc058_0827"
    INDEX 01 05:09:21
  TRACK 255 AUDIO
    TITLE "0:"
    INDEX 01 05:11:32
  TRACK 256 AUDIO
    TITLE "4:cjc058_0828"
    INDEX 01 05:12:39
  TRACK 257 AUDIO
    TITLE "0:"
    INDEX 01 05:15:24
  TRACK 258 AUDIO
    TITLE "5:cjc058_0829"
    INDEX 01 05:15:55
  TRACK 259 AUDIO
    TITLE "0:"
    INDEX 01 05:17:66
